<svg width="81" height="12" viewBox="0 0 81 12" fill="none" xmlns="http://www.w3.org/2000/svg">
<path d="M0.75 4.19488C0.75 3.75228 0.833475 3.33704 1.00043 2.94914C1.16738 2.56125 1.39325 2.22309 1.67805 1.93465C1.96776 1.64124 2.30411 1.41 2.68712 1.24092C3.07012 1.07183 3.48013 0.987294 3.91715 0.987294H8.76362V3.12817H3.91715C3.76984 3.12817 3.63235 3.15552 3.50468 3.21023C3.37701 3.26493 3.26408 3.34201 3.16587 3.44147C3.07257 3.53596 2.99892 3.64785 2.94491 3.77715C2.89089 3.90645 2.86389 4.04569 2.86389 4.19488C2.86389 4.34407 2.89089 4.4858 2.94491 4.62007C2.99892 4.74937 3.07257 4.86375 3.16587 4.96321C3.26408 5.0577 3.37701 5.13229 3.50468 5.187C3.63235 5.2417 3.76984 5.26905 3.91715 5.26905H6.03103C6.46805 5.26905 6.87806 5.35359 7.26106 5.52267C7.64898 5.68678 7.98533 5.91554 8.27013 6.20895C8.55984 6.49738 8.78571 6.83803 8.94775 7.2309C9.11471 7.61879 9.19818 8.03404 9.19818 8.47664C9.19818 8.91924 9.11471 9.33448 8.94775 9.72238C8.78571 10.1103 8.55984 10.4509 8.27013 10.7443C7.98533 11.0328 7.64898 11.2615 7.26106 11.4306C6.87806 11.5997 6.46805 11.6842 6.03103 11.6842H1.33924V9.54335H6.03103C6.17834 9.54335 6.31583 9.516 6.4435 9.46129C6.57117 9.40659 6.68165 9.332 6.77494 9.23751C6.87315 9.13805 6.94926 9.02367 7.00327 8.89437C7.05729 8.76507 7.08429 8.62583 7.08429 8.47664C7.08429 8.32745 7.05729 8.1882 7.00327 8.05891C6.94926 7.92961 6.87315 7.81771 6.77494 7.72323C6.68165 7.62377 6.57117 7.54669 6.4435 7.49198C6.31583 7.43728 6.17834 7.40993 6.03103 7.40993H3.91715C3.48013 7.40993 3.07012 7.32539 2.68712 7.15631C2.30411 6.98722 1.96776 6.75846 1.67805 6.47003C1.39325 6.17662 1.16738 5.83597 1.00043 5.44808C0.833475 5.05521 0.75 4.63748 0.75 4.19488Z" fill="white"/>
<path d="M14.1993 11.6842C13.7132 11.6842 13.2565 11.5922 12.8294 11.4082C12.4022 11.2192 12.0265 10.9631 11.7024 10.6399C11.3833 10.3117 11.1304 9.93124 10.9438 9.49859C10.7621 9.06594 10.6713 8.60345 10.6713 8.11112V5.739H9.69167V3.71001H10.6713V0.517345H12.6747V3.71001H15.724V5.739H12.6747V8.11112C12.6747 8.32496 12.714 8.52637 12.7925 8.71534C12.8711 8.89934 12.9791 9.06097 13.1166 9.20021C13.2541 9.33945 13.4161 9.45135 13.6027 9.53589C13.7893 9.61546 13.9882 9.65524 14.1993 9.65524H15.724V11.6842H14.1993Z" fill="white"/>
<path d="M18.869 11.6842H16.8583V3.69509H17.3444L18.0073 4.64245C18.3313 4.34407 18.6996 4.11531 19.1121 3.95618C19.5246 3.79207 19.9517 3.71001 20.3937 3.71001H22.1688V5.739H20.3937C20.1825 5.739 19.9837 5.77878 19.7971 5.85835C19.6105 5.93792 19.4484 6.04733 19.311 6.18657C19.1735 6.32581 19.0654 6.48992 18.9869 6.6789C18.9083 6.86787 18.869 7.06928 18.869 7.28312V11.6842Z" fill="white"/>
<path d="M26.0945 9.72983C26.1731 9.7547 26.2517 9.77211 26.3302 9.78205C26.4088 9.78702 26.4874 9.78951 26.5659 9.78951C26.7623 9.78951 26.9514 9.76216 27.1331 9.70746C27.3148 9.65275 27.4842 9.57567 27.6413 9.47621C27.8033 9.37178 27.9457 9.24745 28.0685 9.10324C28.1961 8.95405 28.2993 8.78994 28.3778 8.61091L29.8509 10.1103C29.6643 10.3788 29.4483 10.62 29.2028 10.8338C28.9622 11.0477 28.6995 11.2292 28.4147 11.3784C28.1348 11.5276 27.8377 11.6395 27.5234 11.7141C27.2141 11.7936 26.8949 11.8334 26.5659 11.8334C26.0111 11.8334 25.4881 11.729 24.9971 11.5201C24.511 11.3113 24.0838 11.0203 23.7155 10.6474C23.3521 10.2744 23.0649 9.83178 22.8537 9.31956C22.6426 8.80237 22.537 8.23545 22.537 7.61879C22.537 6.98722 22.6426 6.41035 22.8537 5.88819C23.0649 5.36602 23.3521 4.92094 23.7155 4.55294C24.0838 4.18494 24.511 3.89899 24.9971 3.69509C25.4881 3.4912 26.0111 3.38925 26.5659 3.38925C26.8949 3.38925 27.2165 3.42904 27.5308 3.50861C27.8451 3.58817 28.1421 3.70255 28.422 3.85174C28.7068 4.00093 28.972 4.18494 29.2175 4.40375C29.463 4.61759 29.6791 4.85878 29.8657 5.12732L26.0945 9.72983ZM27.1257 5.53013C27.0324 5.49532 26.9391 5.47294 26.8458 5.463C26.7574 5.45305 26.6641 5.44808 26.5659 5.44808C26.291 5.44808 26.0307 5.5003 25.7852 5.60473C25.5446 5.70419 25.3334 5.84841 25.1518 6.03738C24.975 6.22635 24.835 6.45511 24.7319 6.72365C24.6288 6.98722 24.5773 7.2856 24.5773 7.61879C24.5773 7.69339 24.5797 7.77793 24.5846 7.87242C24.5944 7.96691 24.6067 8.06388 24.6214 8.16334C24.6411 8.25783 24.6632 8.34983 24.6877 8.43934C24.7123 8.52885 24.7442 8.60842 24.7835 8.67804L27.1257 5.53013Z" fill="white"/>
<path d="M38.4611 11.6842H37.975L37.1943 10.5877C37.0028 10.7617 36.799 10.9258 36.583 11.08C36.3718 11.2292 36.1484 11.361 35.9127 11.4754C35.677 11.5848 35.4339 11.6718 35.1835 11.7364C34.938 11.8011 34.6876 11.8334 34.4322 11.8334C33.8774 11.8334 33.3544 11.7389 32.8634 11.55C32.3773 11.361 31.9501 11.0875 31.5818 10.7294C31.2184 10.3664 30.9312 9.92378 30.72 9.40162C30.5089 8.87945 30.4033 8.28518 30.4033 7.61879C30.4033 6.99717 30.5089 6.42776 30.72 5.91057C30.9312 5.3884 31.2184 4.94083 31.5818 4.56786C31.9501 4.19488 32.3773 3.90645 32.8634 3.70255C33.3544 3.49369 33.8774 3.38925 34.4322 3.38925C34.6876 3.38925 34.9405 3.42158 35.1909 3.48623C35.4413 3.55088 35.6844 3.64039 35.9201 3.75477C36.1558 3.86915 36.3792 4.00342 36.5903 4.15758C36.8064 4.31175 37.0077 4.47834 37.1943 4.65737L37.975 3.71001H38.4611V11.6842ZM36.4356 7.61879C36.4356 7.34031 36.3816 7.07176 36.2736 6.81317C36.1705 6.5496 36.0281 6.31835 35.8464 6.11943C35.6647 5.91554 35.4511 5.75392 35.2056 5.63457C34.965 5.51024 34.7072 5.44808 34.4322 5.44808C34.1573 5.44808 33.897 5.49532 33.6515 5.58981C33.4109 5.6843 33.1998 5.82354 33.0181 6.00754C32.8413 6.19154 32.7014 6.4203 32.5982 6.69382C32.4951 6.96236 32.4436 7.27068 32.4436 7.61879C32.4436 7.96691 32.4951 8.27772 32.5982 8.55123C32.7014 8.81978 32.8413 9.04605 33.0181 9.23005C33.1998 9.41405 33.4109 9.55329 33.6515 9.64778C33.897 9.74227 34.1573 9.78951 34.4322 9.78951C34.7072 9.78951 34.965 9.72983 35.2056 9.61048C35.4511 9.48616 35.6647 9.32454 35.8464 9.12562C36.0281 8.92172 36.1705 8.69048 36.2736 8.43188C36.3816 8.16831 36.4356 7.89728 36.4356 7.61879Z" fill="white"/>
<path d="M50.0323 11.6842H48.0289V6.61176C48.0289 6.47252 48.0019 6.34073 47.9479 6.21641C47.8988 6.09208 47.8275 5.98268 47.7343 5.88819C47.641 5.7937 47.5329 5.72159 47.4102 5.67186C47.2874 5.61716 47.1573 5.58981 47.0198 5.58981C46.8823 5.58981 46.7522 5.61716 46.6294 5.67186C46.5116 5.72159 46.406 5.7937 46.3127 5.88819C46.2243 5.98268 46.1531 6.09208 46.0991 6.21641C46.05 6.34073 46.0255 6.47252 46.0255 6.61176V11.6842H44.0147V6.61176C44.0147 6.47252 43.9877 6.34073 43.9337 6.21641C43.8846 6.09208 43.8134 5.98268 43.7201 5.88819C43.6268 5.7937 43.5188 5.72159 43.396 5.67186C43.2732 5.61716 43.1431 5.58981 43.0056 5.58981C42.8681 5.58981 42.738 5.61716 42.6153 5.67186C42.4974 5.72159 42.3918 5.7937 42.2985 5.88819C42.2102 5.98268 42.139 6.09208 42.0849 6.21641C42.0358 6.34073 42.0113 6.47252 42.0113 6.61176V11.6842H40.0005V3.69509H40.4866L41.0317 4.30677C41.3116 4.06807 41.6185 3.88407 41.9524 3.75477C42.2912 3.6205 42.6423 3.55336 43.0056 3.55336C43.3739 3.55336 43.7324 3.62299 44.081 3.76223C44.4345 3.90147 44.7439 4.14266 45.009 4.4858C45.1318 4.31672 45.2717 4.1725 45.4289 4.05315C45.586 3.9338 45.7505 3.83683 45.9224 3.76223C46.0991 3.68763 46.2808 3.63542 46.4674 3.60558C46.654 3.57077 46.8381 3.55336 47.0198 3.55336C47.4372 3.55336 47.8275 3.63293 48.1909 3.79207C48.5592 3.9512 48.8784 4.17002 49.1484 4.4485C49.4234 4.72202 49.6395 5.04527 49.7966 5.41824C49.9537 5.79122 50.0323 6.18906 50.0323 6.61176V11.6842Z" fill="white"/>
<path d="M59.7915 0.987294L56.3224 11.6842H54.2085L50.7541 0.987294H53.1552L55.2618 8.12604L57.3756 0.987294H59.7915Z" fill="white"/>
<path d="M62.966 1.52438C62.966 1.71335 62.9292 1.88989 62.8555 2.054C62.7868 2.21811 62.691 2.36233 62.5683 2.48665C62.4455 2.60601 62.3007 2.70298 62.1337 2.77758C61.9717 2.8472 61.7974 2.88201 61.6108 2.88201C61.4242 2.88201 61.2474 2.8472 61.0805 2.77758C60.9184 2.70298 60.776 2.60601 60.6533 2.48665C60.5354 2.36233 60.4397 2.21811 60.366 2.054C60.2973 1.88989 60.2629 1.71335 60.2629 1.52438C60.2629 1.34038 60.2973 1.16632 60.366 1.00221C60.4397 0.833131 60.5354 0.688913 60.6533 0.569561C60.776 0.445236 60.9184 0.348263 61.0805 0.278641C61.2474 0.204046 61.4242 0.166748 61.6108 0.166748C61.7974 0.166748 61.9717 0.204046 62.1337 0.278641C62.3007 0.348263 62.4455 0.445236 62.5683 0.569561C62.691 0.688913 62.7868 0.833131 62.8555 1.00221C62.9292 1.16632 62.966 1.34038 62.966 1.52438ZM62.6198 11.6842H60.5943V3.69509H62.6198V11.6842Z" fill="white"/>
<path d="M72.055 7.61879C72.055 8.24539 71.9494 8.81729 71.7383 9.33448C71.5271 9.85167 71.2399 10.2968 70.8765 10.6697C70.5132 11.0377 70.086 11.3237 69.5949 11.5276C69.1088 11.7315 68.5859 11.8334 68.0261 11.8334C67.4712 11.8334 66.9483 11.729 66.4572 11.5201C65.9711 11.3113 65.5439 11.0203 65.1757 10.6474C64.8123 10.2744 64.525 9.83178 64.3139 9.31956C64.1028 8.80237 63.9972 8.23545 63.9972 7.61879V0.517345H66.0153V4.2471C66.1233 4.10785 66.2535 3.98353 66.4057 3.87412C66.5628 3.76472 66.7298 3.6752 66.9065 3.60558C67.0882 3.53596 67.2748 3.48374 67.4663 3.44893C67.6578 3.40915 67.8444 3.38925 68.0261 3.38925C68.5859 3.38925 69.1088 3.49617 69.5949 3.71001C70.086 3.91888 70.5132 4.21229 70.8765 4.59024C71.2399 4.96818 71.5271 5.41575 71.7383 5.93295C71.9494 6.44517 72.055 7.00712 72.055 7.61879ZM70.0295 7.61879C70.0295 7.31047 69.9755 7.02452 69.8675 6.76095C69.7643 6.49241 69.6219 6.26116 69.4403 6.06722C69.2586 5.87327 69.045 5.72159 68.7995 5.61219C68.5589 5.50278 68.3011 5.44808 68.0261 5.44808C67.7511 5.44808 67.4909 5.51024 67.2454 5.63457C67.0047 5.75392 66.7936 5.91554 66.6119 6.11943C66.4302 6.31835 66.2878 6.5496 66.1847 6.81317C66.0816 7.07176 66.0301 7.34031 66.0301 7.61879C66.0301 7.92712 66.0816 8.21307 66.1847 8.47664C66.2878 8.74021 66.4302 8.96897 66.6119 9.16291C66.7936 9.35686 67.0047 9.51102 67.2454 9.6254C67.4909 9.73481 67.7511 9.78951 68.0261 9.78951C68.3011 9.78951 68.5589 9.73481 68.7995 9.6254C69.045 9.51102 69.2586 9.35686 69.4403 9.16291C69.6219 8.96897 69.7643 8.74021 69.8675 8.47664C69.9755 8.21307 70.0295 7.92712 70.0295 7.61879Z" fill="white"/>
<path d="M76.3122 9.72983C76.3908 9.7547 76.4694 9.77211 76.5479 9.78205C76.6265 9.78702 76.7051 9.78951 76.7836 9.78951C76.98 9.78951 77.1691 9.76216 77.3508 9.70746C77.5324 9.65275 77.7018 9.57567 77.859 9.47621C78.021 9.37178 78.1634 9.24745 78.2862 9.10324C78.4138 8.95405 78.517 8.78994 78.5955 8.61091L80.0686 10.1103C79.882 10.3788 79.666 10.62 79.4205 10.8338C79.1798 11.0477 78.9171 11.2292 78.6323 11.3784C78.3525 11.5276 78.0554 11.6395 77.7411 11.7141C77.4318 11.7936 77.1126 11.8334 76.7836 11.8334C76.2288 11.8334 75.7058 11.729 75.2148 11.5201C74.7287 11.3113 74.3015 11.0203 73.9332 10.6474C73.5698 10.2744 73.2826 9.83178 73.0714 9.31956C72.8603 8.80237 72.7547 8.23545 72.7547 7.61879C72.7547 6.98722 72.8603 6.41035 73.0714 5.88819C73.2826 5.36602 73.5698 4.92094 73.9332 4.55294C74.3015 4.18494 74.7287 3.89899 75.2148 3.69509C75.7058 3.4912 76.2288 3.38925 76.7836 3.38925C77.1126 3.38925 77.4342 3.42904 77.7485 3.50861C78.0628 3.58817 78.3598 3.70255 78.6397 3.85174C78.9245 4.00093 79.1897 4.18494 79.4352 4.40375C79.6807 4.61759 79.8968 4.85878 80.0833 5.12732L76.3122 9.72983ZM77.3434 5.53013C77.2501 5.49532 77.1568 5.47294 77.0635 5.463C76.9751 5.45305 76.8818 5.44808 76.7836 5.44808C76.5086 5.44808 76.2484 5.5003 76.0029 5.60473C75.7623 5.70419 75.5511 5.84841 75.3695 6.03738C75.1927 6.22635 75.0527 6.45511 74.9496 6.72365C74.8465 6.98722 74.7949 7.2856 74.7949 7.61879C74.7949 7.69339 74.7974 7.77793 74.8023 7.87242C74.8121 7.96691 74.8244 8.06388 74.8391 8.16334C74.8588 8.25783 74.8809 8.34983 74.9054 8.43934C74.93 8.52885 74.9619 8.60842 75.0012 8.67804L77.3434 5.53013Z" fill="white"/>
</svg>
